<svg xmlns="http://www.w3.org/2000/svg" xmlns:xlink="http://www.w3.org/1999/xlink" width="500" zoomAndPan="magnify" viewBox="0 0 375 374.999991" height="500" preserveAspectRatio="xMidYMid meet" version="1.0"><defs><g/><clipPath id="bdec278529"><path d="M 92 161 L 127 161 L 127 199 L 92 199 Z M 92 161 " clip-rule="nonzero"/></clipPath><clipPath id="1512bd9f47"><path d="M 92.347656 162.878906 L 124.316406 161.113281 L 126.304688 197.097656 L 94.335938 198.863281 Z M 92.347656 162.878906 " clip-rule="nonzero"/></clipPath></defs><rect x="-37.5" width="450" fill="#ffffff" y="-37.499999" height="449.999989" fill-opacity="1"/><rect x="-37.5" width="450" fill="#f5f5f5" y="-37.499999" height="449.999989" fill-opacity="1"/><g clip-path="url(#bdec278529)"><g clip-path="url(#1512bd9f47)"><path fill="#e8aa41" d="M 92.347656 162.878906 L 124.316406 161.113281 L 126.304688 197.078125 L 94.332031 198.84375 Z M 92.347656 162.878906 " fill-opacity="1" fill-rule="nonzero"/></g></g><g fill="#292828" fill-opacity="1"><g transform="translate(126.760734, 196.968767)"><g><path d="M 21.203125 -12.46875 C 21.203125 -12.019531 21.179688 -11.59375 21.140625 -11.1875 C 21.109375 -10.78125 21.066406 -10.257812 21.015625 -9.625 L 6.734375 -9.625 C 6.785156 -7.625 7.359375 -6.148438 8.453125 -5.203125 C 9.546875 -4.253906 11.070312 -3.78125 13.03125 -3.78125 C 14.75 -3.78125 16.113281 -4.128906 17.125 -4.828125 C 18.132812 -5.535156 19.109375 -6.640625 20.046875 -8.140625 L 20.046875 -3.25 C 19.140625 -2.113281 18 -1.175781 16.625 -0.4375 C 15.257812 0.300781 13.800781 0.671875 12.25 0.671875 C 8.789062 0.671875 6.117188 -0.390625 4.234375 -2.515625 C 2.347656 -4.640625 1.40625 -7.6875 1.40625 -11.65625 C 1.40625 -13.925781 1.773438 -15.972656 2.515625 -17.796875 C 3.253906 -19.617188 4.390625 -21.0625 5.921875 -22.125 C 7.453125 -23.1875 9.375 -23.71875 11.6875 -23.71875 C 14.769531 -23.71875 17.125 -22.796875 18.75 -20.953125 C 20.382812 -19.117188 21.203125 -16.289062 21.203125 -12.46875 Z M 6.734375 -14.0625 L 17.421875 -14.0625 C 17.378906 -15.5625 16.820312 -16.691406 15.75 -17.453125 C 14.675781 -18.222656 13.410156 -18.609375 11.953125 -18.609375 C 11.140625 -18.609375 10.347656 -18.441406 9.578125 -18.109375 C 8.816406 -17.773438 8.175781 -17.269531 7.65625 -16.59375 C 7.132812 -15.914062 6.828125 -15.070312 6.734375 -14.0625 Z M 6.734375 -14.0625 "/></g></g></g><g fill="#292828" fill-opacity="1"><g transform="translate(146.997333, 196.968767)"><g><path d="M 21.203125 -12.46875 C 21.203125 -12.019531 21.179688 -11.59375 21.140625 -11.1875 C 21.109375 -10.78125 21.066406 -10.257812 21.015625 -9.625 L 6.734375 -9.625 C 6.785156 -7.625 7.359375 -6.148438 8.453125 -5.203125 C 9.546875 -4.253906 11.070312 -3.78125 13.03125 -3.78125 C 14.75 -3.78125 16.113281 -4.128906 17.125 -4.828125 C 18.132812 -5.535156 19.109375 -6.640625 20.046875 -8.140625 L 20.046875 -3.25 C 19.140625 -2.113281 18 -1.175781 16.625 -0.4375 C 15.257812 0.300781 13.800781 0.671875 12.25 0.671875 C 8.789062 0.671875 6.117188 -0.390625 4.234375 -2.515625 C 2.347656 -4.640625 1.40625 -7.6875 1.40625 -11.65625 C 1.40625 -13.925781 1.773438 -15.972656 2.515625 -17.796875 C 3.253906 -19.617188 4.390625 -21.0625 5.921875 -22.125 C 7.453125 -23.1875 9.375 -23.71875 11.6875 -23.71875 C 14.769531 -23.71875 17.125 -22.796875 18.75 -20.953125 C 20.382812 -19.117188 21.203125 -16.289062 21.203125 -12.46875 Z M 6.734375 -14.0625 L 17.421875 -14.0625 C 17.378906 -15.5625 16.820312 -16.691406 15.75 -17.453125 C 14.675781 -18.222656 13.410156 -18.609375 11.953125 -18.609375 C 11.140625 -18.609375 10.347656 -18.441406 9.578125 -18.109375 C 8.816406 -17.773438 8.175781 -17.269531 7.65625 -16.59375 C 7.132812 -15.914062 6.828125 -15.070312 6.734375 -14.0625 Z M 6.734375 -14.0625 "/></g></g></g><g fill="#292828" fill-opacity="1"><g transform="translate(167.233932, 196.968767)"><g><path d="M 20.984375 -18.125 L 21.046875 -18.125 C 21.566406 -19.875 22.367188 -21.242188 23.453125 -22.234375 C 24.546875 -23.222656 26.050781 -23.71875 27.96875 -23.71875 C 32.289062 -23.71875 34.453125 -21.375 34.453125 -16.6875 L 34.453125 0 L 28.890625 0 L 28.890625 -13.28125 C 28.890625 -14.238281 28.8125 -15.097656 28.65625 -15.859375 C 28.5 -16.628906 28.191406 -17.242188 27.734375 -17.703125 C 27.273438 -18.160156 26.578125 -18.390625 25.640625 -18.390625 C 24.210938 -18.390625 23.128906 -17.804688 22.390625 -16.640625 C 21.648438 -15.484375 21.28125 -13.8125 21.28125 -11.625 L 21.28125 0 L 15.71875 0 L 15.71875 -13.25 C 15.71875 -14.0625 15.65625 -14.859375 15.53125 -15.640625 C 15.414062 -16.429688 15.128906 -17.085938 14.671875 -17.609375 C 14.210938 -18.128906 13.476562 -18.390625 12.46875 -18.390625 C 11.039062 -18.390625 9.957031 -17.804688 9.21875 -16.640625 C 8.476562 -15.484375 8.109375 -13.796875 8.109375 -11.578125 L 8.109375 0 L 2.546875 0 L 2.546875 -23.046875 L 7.875 -23.046875 L 7.875 -17.90625 L 7.953125 -17.90625 C 8.472656 -19.882812 9.289062 -21.347656 10.40625 -22.296875 C 11.53125 -23.242188 12.992188 -23.71875 14.796875 -23.71875 C 16.523438 -23.71875 17.90625 -23.265625 18.9375 -22.359375 C 19.976562 -21.460938 20.660156 -20.050781 20.984375 -18.125 Z M 20.984375 -18.125 "/></g></g></g><g fill="#292828" fill-opacity="1"><g transform="translate(201.862004, 196.968767)"><g><path d="M 19.9375 -16.765625 L 19.9375 0 L 14.84375 0 L 14.84375 -4.4375 L 14.765625 -4.4375 C 14.242188 -2.664062 13.40625 -1.367188 12.25 -0.546875 C 11.09375 0.265625 9.585938 0.671875 7.734375 0.671875 C 6.523438 0.671875 5.425781 0.394531 4.4375 -0.15625 C 3.445312 -0.71875 2.671875 -1.476562 2.109375 -2.4375 C 1.546875 -3.40625 1.265625 -4.503906 1.265625 -5.734375 C 1.265625 -7.660156 1.882812 -9.148438 3.125 -10.203125 C 4.375 -11.265625 6.304688 -12.128906 8.921875 -12.796875 C 10.742188 -13.265625 12.171875 -13.722656 13.203125 -14.171875 C 14.242188 -14.617188 14.765625 -15.320312 14.765625 -16.28125 C 14.765625 -17.113281 14.382812 -17.707031 13.625 -18.0625 C 12.875 -18.425781 11.945312 -18.609375 10.84375 -18.609375 C 8.9375 -18.609375 7.28125 -18.210938 5.875 -17.421875 C 4.476562 -16.640625 3.320312 -15.59375 2.40625 -14.28125 L 2.40625 -19.71875 C 3.269531 -20.726562 4.125 -21.523438 4.96875 -22.109375 C 5.820312 -22.691406 6.765625 -23.101562 7.796875 -23.34375 C 8.835938 -23.59375 10.0625 -23.71875 11.46875 -23.71875 C 14.207031 -23.71875 16.300781 -23.101562 17.75 -21.875 C 19.207031 -20.65625 19.9375 -18.953125 19.9375 -16.765625 Z M 9.578125 -3.328125 C 11.328125 -3.328125 12.644531 -3.972656 13.53125 -5.265625 C 14.425781 -6.566406 14.875 -8.191406 14.875 -10.140625 L 14.875 -11.390625 C 14.476562 -11.023438 13.925781 -10.71875 13.21875 -10.46875 C 12.519531 -10.21875 11.566406 -9.882812 10.359375 -9.46875 C 7.847656 -8.582031 6.59375 -7.4375 6.59375 -6.03125 C 6.59375 -5.113281 6.863281 -4.429688 7.40625 -3.984375 C 7.945312 -3.546875 8.671875 -3.328125 9.578125 -3.328125 Z M 9.578125 -3.328125 "/></g></g></g><g fill="#292828" fill-opacity="1"><g transform="translate(222.098601, 196.968767)"><g><path d="M 16.359375 -22.75 L 16.359375 -16.3125 C 15.617188 -17.394531 14.554688 -17.9375 13.171875 -17.9375 C 11.984375 -17.9375 11.023438 -17.59375 10.296875 -16.90625 C 9.578125 -16.21875 9.050781 -15.285156 8.71875 -14.109375 C 8.382812 -12.941406 8.21875 -11.644531 8.21875 -10.21875 L 8.21875 0 L 2.65625 0 L 2.65625 -23.046875 L 7.8125 -23.046875 L 7.8125 -16.421875 L 7.875 -16.421875 C 8.175781 -18.816406 8.773438 -20.628906 9.671875 -21.859375 C 10.578125 -23.097656 11.753906 -23.71875 13.203125 -23.71875 C 13.742188 -23.71875 14.289062 -23.648438 14.84375 -23.515625 C 15.40625 -23.378906 15.910156 -23.125 16.359375 -22.75 Z M 16.359375 -22.75 "/></g></g></g><g fill="#292828" fill-opacity="1"><g transform="translate(236.156861, 196.968767)"><g><path d="M 8.46875 -27.078125 C 8.46875 -26.367188 8.207031 -25.800781 7.6875 -25.375 C 7.175781 -24.957031 6.328125 -24.75 5.140625 -24.75 C 3.953125 -24.75 3.097656 -24.957031 2.578125 -25.375 C 2.066406 -25.800781 1.8125 -26.367188 1.8125 -27.078125 C 1.8125 -28.015625 2.082031 -28.640625 2.625 -28.953125 C 3.164062 -29.265625 4.003906 -29.421875 5.140625 -29.421875 C 6.273438 -29.421875 7.113281 -29.265625 7.65625 -28.953125 C 8.195312 -28.640625 8.46875 -28.015625 8.46875 -27.078125 Z M 2.375 0 L 2.375 -23.046875 C 2.644531 -22.878906 3.015625 -22.734375 3.484375 -22.609375 C 3.953125 -22.484375 4.53125 -22.421875 5.21875 -22.421875 C 6.226562 -22.421875 7.128906 -22.628906 7.921875 -23.046875 L 7.921875 0 Z M 2.375 0 "/></g></g></g><g fill="#292828" fill-opacity="1"><g transform="translate(244.073768, 196.968767)"><g><path d="M 2.078125 -2 L 2.078125 -7.953125 C 2.710938 -6.671875 3.5625 -5.691406 4.625 -5.015625 C 5.6875 -4.335938 6.984375 -4 8.515625 -4 C 9.023438 -4 9.546875 -4.082031 10.078125 -4.25 C 10.609375 -4.425781 11.054688 -4.710938 11.421875 -5.109375 C 11.796875 -5.503906 11.984375 -6.035156 11.984375 -6.703125 C 11.984375 -7.367188 11.660156 -7.890625 11.015625 -8.265625 C 10.378906 -8.648438 9.257812 -9.078125 7.65625 -9.546875 C 5.78125 -10.109375 4.304688 -10.851562 3.234375 -11.78125 C 2.160156 -12.707031 1.625 -14.097656 1.625 -15.953125 C 1.625 -17.523438 1.988281 -18.890625 2.71875 -20.046875 C 3.445312 -21.210938 4.4375 -22.113281 5.6875 -22.75 C 6.945312 -23.394531 8.359375 -23.71875 9.921875 -23.71875 C 11.171875 -23.71875 12.335938 -23.492188 13.421875 -23.046875 C 14.515625 -22.609375 15.378906 -21.941406 16.015625 -21.046875 L 16.015625 -15.0625 C 15.523438 -16.289062 14.738281 -17.1875 13.65625 -17.75 C 12.570312 -18.320312 11.382812 -18.609375 10.09375 -18.609375 C 9.28125 -18.609375 8.515625 -18.390625 7.796875 -17.953125 C 7.085938 -17.523438 6.734375 -16.957031 6.734375 -16.25 C 6.734375 -15.40625 7.128906 -14.8125 7.921875 -14.46875 C 8.710938 -14.125 9.785156 -13.765625 11.140625 -13.390625 C 13.035156 -12.867188 14.460938 -12.117188 15.421875 -11.140625 C 16.390625 -10.171875 16.875 -8.738281 16.875 -6.84375 C 16.875 -5.3125 16.492188 -3.976562 15.734375 -2.84375 C 14.984375 -1.707031 13.992188 -0.835938 12.765625 -0.234375 C 11.535156 0.367188 10.164062 0.671875 8.65625 0.671875 C 7.28125 0.671875 6.09375 0.445312 5.09375 0 C 4.09375 -0.445312 3.085938 -1.113281 2.078125 -2 Z M 2.078125 -2 "/></g></g></g><g fill="#292828" fill-opacity="1"><g transform="translate(260.203803, 196.968767)"><g><path d="M 21.203125 -12.46875 C 21.203125 -12.019531 21.179688 -11.59375 21.140625 -11.1875 C 21.109375 -10.78125 21.066406 -10.257812 21.015625 -9.625 L 6.734375 -9.625 C 6.785156 -7.625 7.359375 -6.148438 8.453125 -5.203125 C 9.546875 -4.253906 11.070312 -3.78125 13.03125 -3.78125 C 14.75 -3.78125 16.113281 -4.128906 17.125 -4.828125 C 18.132812 -5.535156 19.109375 -6.640625 20.046875 -8.140625 L 20.046875 -3.25 C 19.140625 -2.113281 18 -1.175781 16.625 -0.4375 C 15.257812 0.300781 13.800781 0.671875 12.25 0.671875 C 8.789062 0.671875 6.117188 -0.390625 4.234375 -2.515625 C 2.347656 -4.640625 1.40625 -7.6875 1.40625 -11.65625 C 1.40625 -13.925781 1.773438 -15.972656 2.515625 -17.796875 C 3.253906 -19.617188 4.390625 -21.0625 5.921875 -22.125 C 7.453125 -23.1875 9.375 -23.71875 11.6875 -23.71875 C 14.769531 -23.71875 17.125 -22.796875 18.75 -20.953125 C 20.382812 -19.117188 21.203125 -16.289062 21.203125 -12.46875 Z M 6.734375 -14.0625 L 17.421875 -14.0625 C 17.378906 -15.5625 16.820312 -16.691406 15.75 -17.453125 C 14.675781 -18.222656 13.410156 -18.609375 11.953125 -18.609375 C 11.140625 -18.609375 10.347656 -18.441406 9.578125 -18.109375 C 8.816406 -17.773438 8.175781 -17.269531 7.65625 -16.59375 C 7.132812 -15.914062 6.828125 -15.070312 6.734375 -14.0625 Z M 6.734375 -14.0625 "/></g></g></g><g fill="#f5f5f5" fill-opacity="1"><g transform="translate(97.5647, 200.630188)"><g><path d="M 2.796875 -2.703125 L 2.796875 -10.75 C 3.660156 -9.019531 4.8125 -7.695312 6.25 -6.78125 C 7.6875 -5.863281 9.4375 -5.40625 11.5 -5.40625 C 12.195312 -5.40625 12.90625 -5.519531 13.625 -5.75 C 14.34375 -5.976562 14.953125 -6.359375 15.453125 -6.890625 C 15.953125 -7.429688 16.203125 -8.148438 16.203125 -9.046875 C 16.203125 -9.953125 15.765625 -10.660156 14.890625 -11.171875 C 14.023438 -11.691406 12.507812 -12.269531 10.34375 -12.90625 C 7.8125 -13.664062 5.820312 -14.671875 4.375 -15.921875 C 2.925781 -17.171875 2.203125 -19.046875 2.203125 -21.546875 C 2.203125 -23.679688 2.691406 -25.53125 3.671875 -27.09375 C 4.660156 -28.664062 6.003906 -29.882812 7.703125 -30.75 C 9.398438 -31.613281 11.300781 -32.046875 13.40625 -32.046875 C 15.101562 -32.046875 16.679688 -31.742188 18.140625 -31.140625 C 19.609375 -30.546875 20.78125 -29.648438 21.65625 -28.453125 L 21.65625 -20.34375 C 20.988281 -22.007812 19.921875 -23.226562 18.453125 -24 C 16.984375 -24.769531 15.382812 -25.15625 13.65625 -25.15625 C 12.550781 -25.15625 11.515625 -24.863281 10.546875 -24.28125 C 9.578125 -23.695312 9.09375 -22.921875 9.09375 -21.953125 C 9.09375 -20.816406 9.625 -20.015625 10.6875 -19.546875 C 11.757812 -19.078125 13.210938 -18.59375 15.046875 -18.09375 C 17.617188 -17.394531 19.550781 -16.382812 20.84375 -15.0625 C 22.144531 -13.75 22.796875 -11.8125 22.796875 -9.25 C 22.796875 -7.1875 22.285156 -5.382812 21.265625 -3.84375 C 20.253906 -2.3125 18.914062 -1.132812 17.25 -0.3125 C 15.582031 0.5 13.734375 0.90625 11.703125 0.90625 C 9.835938 0.90625 8.226562 0.601562 6.875 0 C 5.519531 -0.601562 4.160156 -1.503906 2.796875 -2.703125 Z M 2.796875 -2.703125 "/></g></g></g></svg>